<?xml version="1.0" encoding="UTF-8" standalone="no"?>
<!DOCTYPE svg PUBLIC "-//W3C//DTD SVG 1.1//EN" "http://www.w3.org/Graphics/SVG/1.1/DTD/svg11.dtd">
<svg width="100%" height="100%" viewBox="0 0 2000 512" version="1.1" xmlns="http://www.w3.org/2000/svg" xmlns:xlink="http://www.w3.org/1999/xlink" xml:space="preserve" xmlns:serif="http://www.serif.com/" style="fill-rule:evenodd;clip-rule:evenodd;">
    <g transform="matrix(11.6504,0,0,11.6504,376.84,256)">
        <g transform="matrix(1,0,0,1,-16,-16)">
            <path d="M6.549,5.536L27.516,5.483L19.045,26.453L14.009,26.441L17.22,18.503L9.257,18.477L12.485,10.527L4.513,10.548L6.549,5.536Z" style="fill:white;"/>
            <path d="M6.545,4.036C5.936,4.038 5.388,4.407 5.159,4.972L3.123,9.983C2.935,10.446 2.99,10.972 3.27,11.387C3.549,11.801 4.017,12.049 4.517,12.047L10.255,12.033L7.867,17.913C7.68,18.375 7.734,18.899 8.011,19.313C8.289,19.727 8.754,19.976 9.252,19.977L14.998,19.996L12.618,25.878C12.431,26.34 12.486,26.864 12.764,27.278C13.042,27.691 13.507,27.939 14.005,27.941L19.042,27.953C19.655,27.954 20.207,27.583 20.436,27.015L28.907,6.045C29.094,5.582 29.038,5.056 28.759,4.643C28.479,4.229 28.012,3.982 27.512,3.983L6.545,4.036ZM6.549,5.536L27.516,5.483L19.045,26.453L14.009,26.441L17.22,18.503L9.257,18.477L12.485,10.527L4.513,10.548L6.549,5.536Z" style="fill:white;"/>
            <g transform="matrix(1.00363,0,0,1.00628,-26.3805,-57.8206)">
                <g id="ArtBoard1">
                    <g>
                        <g id="polygon4576" transform="matrix(0.996381,0,0,0.993757,-0.177315,0.185071)">
                            <path d="M49.024,63.159L46.992,68.194L52.02,68.194L54.053,63.159L49.024,63.159Z" style="fill:rgb(99,102,241);fill-rule:nonzero;stroke:rgb(99,102,241);stroke-width:1px;"/>
                        </g>
                        <g id="polygon4564" transform="matrix(0.996381,0,0,0.993757,-0.177315,0.185071)">
                            <path d="M42.591,79.094L40.558,84.11L45.586,84.11L47.619,79.094L42.591,79.094Z" style="fill:none;fill-rule:nonzero;stroke:rgb(99,102,241);stroke-width:1px;"/>
                        </g>
                        <g id="polygon4568" transform="matrix(0.996381,0,0,0.993757,-0.177315,0.185071)">
                            <path d="M45.8,71.127L43.769,76.143L48.803,76.143L50.836,71.127L45.8,71.127Z" style="fill:none;fill-rule:nonzero;stroke:rgb(99,102,241);stroke-width:1px;"/>
                        </g>
                        <g id="polygon4572" transform="matrix(0.996381,0,0,0.993757,-0.177315,0.185071)">
                            <path d="M37.833,71.127L35.801,76.143L40.836,76.143L42.869,71.127L37.833,71.127Z" style="fill:none;fill-rule:nonzero;stroke:rgb(99,102,241);stroke-width:1px;"/>
                        </g>
                        <g id="polygon45761" serif:id="polygon4576" transform="matrix(0.996381,0,0,0.993757,-0.177315,0.185071)">
                            <path d="M49.024,63.159L46.992,68.194L52.02,68.194L54.053,63.159L49.024,63.159Z" style="fill:rgb(99,102,241);fill-rule:nonzero;stroke:rgb(99,102,241);stroke-width:1px;"/>
                        </g>
                        <g id="polygon4588" transform="matrix(0.996381,0,0,0.993757,-0.177315,0.185071)">
                            <path d="M41.059,63.159L39.027,68.194L44.056,68.194L46.093,63.159L41.059,63.159Z" style="fill:none;fill-rule:nonzero;stroke:rgb(99,102,241);stroke-width:1px;"/>
                        </g>
                        <g id="polygon4600" transform="matrix(0.996381,0,0,0.993757,-0.177315,0.185071)">
                            <path d="M33.095,63.159L31.064,68.194L36.09,68.194L38.125,63.159L33.095,63.159Z" style="fill:none;fill-rule:nonzero;stroke:rgb(99,102,241);stroke-width:1px;"/>
                        </g>
                    </g>
                </g>
            </g>
        </g>
    </g>
    <g transform="matrix(1,0,0,1,75.6441,53.0296)">
        <text x="515.573px" y="325.995px" style="font-family:'HelveticaNeue', 'Helvetica Neue';font-size:350px;">Installer</text>
        <path d="M544.273,63.095C537.093,63.095 531.273,68.916 531.273,76.095L531.273,325.995C531.273,333.175 537.093,338.995 544.273,338.995L577.523,338.995C584.703,338.995 590.523,333.175 590.523,325.995L590.523,76.095C590.523,68.916 584.703,63.095 577.523,63.095L544.273,63.095ZM544.273,76.095L544.273,325.995L577.523,325.995L577.523,76.095L544.273,76.095Z" style="fill:white;"/>
        <path d="M669.06,141.257C667.44,135.925 662.484,132.045 656.623,132.045L628.623,132.045C621.443,132.045 615.623,137.866 615.623,145.045L615.623,325.995C615.623,333.175 621.443,338.995 628.623,338.995L658.373,338.995C665.553,338.995 671.373,333.175 671.373,325.995L671.373,223.795C671.373,217.072 672.247,210.872 674.072,205.205C675.732,200.051 678.192,195.536 681.512,191.692C684.66,188.047 688.62,185.265 693.343,183.277C698.567,181.077 704.774,180.095 711.923,180.095C719.395,180.095 725.411,181.818 729.681,186.088C733.924,190.331 735.673,196.222 735.673,203.495C735.673,203.495 735.673,325.995 735.673,325.995C735.673,333.175 741.493,338.995 748.673,338.995L778.423,338.995C785.603,338.995 791.423,333.175 791.423,325.995L791.423,206.995C791.423,196.056 790.284,186.097 788.07,177.111C785.585,167.021 781.219,158.346 775.077,151.034C768.89,143.668 760.84,137.849 750.823,133.725C741.562,129.912 730.013,127.845 716.123,127.845C697.492,127.845 681.821,132.343 669.06,141.257ZM628.623,145.045L628.623,325.995L658.373,325.995L658.373,223.795C658.373,215.629 659.481,208.104 661.698,201.22C663.915,194.337 667.24,188.329 671.673,183.195C676.106,178.062 681.648,174.095 688.298,171.295C694.948,168.495 702.823,167.095 711.923,167.095C723.356,167.095 732.34,170.362 738.873,176.895C745.406,183.429 748.673,192.295 748.673,203.495L748.673,325.995L778.423,325.995L778.423,206.995C778.423,197.195 777.431,188.27 775.448,180.22C773.465,172.17 770.023,165.229 765.123,159.395C760.223,153.562 753.806,149.012 745.873,145.745C737.94,142.479 728.023,140.845 716.123,140.845C689.29,140.845 669.69,151.812 657.323,173.745L656.623,173.745L656.623,145.045L628.623,145.045Z" style="fill:white;"/>
        <path d="M854.415,268.481C854.165,261.487 848.422,255.945 841.423,255.945L811.673,255.945C808.131,255.945 804.743,257.39 802.291,259.946C799.839,262.502 798.537,265.948 798.684,269.487C799.243,282.905 802.19,294.259 807.221,303.624C812.444,313.344 819.434,321.156 828.138,327.104C836.422,332.764 845.931,336.877 856.7,339.363C866.727,341.676 877.267,342.845 888.323,342.845C898.226,342.845 908.193,341.897 918.223,339.992C929.035,337.939 938.74,334.278 947.362,329.077C956.48,323.578 963.858,316.34 969.502,307.367C975.216,298.283 978.323,286.918 978.323,273.145C978.323,261.897 975.902,252.524 971.493,244.923C967.15,237.435 961.457,231.223 954.418,226.281C947.938,221.732 940.508,218.05 932.098,215.292C924.584,212.829 916.887,210.734 909.004,209.007C902.004,207.374 894.965,205.79 887.926,204.265C881.68,202.912 876.054,201.261 871.058,199.283C867.136,197.731 863.862,195.846 861.329,193.477C860.409,192.616 860.023,191.502 860.023,190.195C860.023,188.894 860.024,187.755 860.674,186.941C861.809,185.523 863.325,184.442 865.141,183.591C867.807,182.341 870.774,181.494 874.025,180.994C877.907,180.397 881.74,180.095 885.523,180.095C889.483,180.095 893.395,180.52 897.261,181.368C900.655,182.113 903.767,183.295 906.582,184.951C908.839,186.278 910.696,188.041 912.156,190.232C913.622,192.43 914.298,195.251 914.564,198.582C915.105,205.338 920.745,210.545 927.523,210.545L957.273,210.545C960.865,210.545 964.296,209.06 966.754,206.44C969.211,203.821 970.475,200.302 970.247,196.717C969.409,183.6 966.458,172.688 961.713,163.896C956.668,154.548 949.884,147.157 941.426,141.666C933.467,136.5 924.339,132.824 914.006,130.73C904.585,128.82 894.276,127.845 883.073,127.845C874.111,127.845 865.082,128.957 855.988,131.198C846.498,133.536 837.983,137.139 830.419,141.953C822.356,147.083 815.754,153.747 810.624,161.955C805.333,170.421 802.523,180.505 802.523,192.295C802.523,207.729 806.859,219.611 814.576,228.254C821.679,236.209 830.528,242.431 841.182,246.835C850.7,250.769 861.039,253.827 872.207,255.984C882.099,257.895 891.262,260.028 899.693,262.389C906.907,264.409 912.953,266.975 917.763,270.245C919.972,271.748 920.823,274.079 920.823,276.995C920.823,279.34 920.516,281.348 919.343,282.862C917.89,284.74 916.029,286.144 913.788,287.113C910.51,288.531 906.915,289.483 903.016,290.015C898.496,290.631 894.182,290.945 890.073,290.945C884.899,290.945 879.873,290.453 874.997,289.458C870.772,288.596 866.965,287.206 863.602,285.223C860.893,283.625 858.711,281.466 857.044,278.757C855.321,275.957 854.558,272.502 854.415,268.481ZM841.423,268.945L811.673,268.945C812.14,280.145 814.473,289.654 818.673,297.47C822.873,305.287 828.473,311.587 835.473,316.37C842.473,321.154 850.523,324.595 859.623,326.695C868.723,328.795 878.29,329.845 888.323,329.845C897.423,329.845 906.581,328.97 915.798,327.22C925.015,325.47 933.298,322.379 940.648,317.945C947.998,313.512 953.948,307.679 958.498,300.445C963.048,293.212 965.323,284.112 965.323,273.145C965.323,264.512 963.631,257.279 960.248,251.445C956.865,245.612 952.431,240.77 946.948,236.92C941.465,233.07 935.165,229.979 928.048,227.645C920.931,225.312 913.64,223.329 906.173,221.695C899.173,220.062 892.173,218.487 885.173,216.97C878.173,215.454 871.873,213.587 866.273,211.37C860.673,209.154 856.065,206.354 852.448,202.97C848.831,199.587 847.023,195.329 847.023,190.195C847.023,185.529 848.19,181.737 850.523,178.82C852.856,175.904 855.89,173.57 859.623,171.82C863.356,170.07 867.498,168.845 872.048,168.145C876.598,167.445 881.09,167.095 885.523,167.095C890.423,167.095 895.265,167.62 900.048,168.67C904.831,169.72 909.206,171.412 913.173,173.745C917.14,176.079 920.406,179.17 922.973,183.02C925.54,186.87 927.056,191.712 927.523,197.545L957.273,197.545C956.573,186.579 954.24,177.42 950.273,170.07C946.306,162.72 940.998,156.887 934.348,152.57C927.698,148.254 920.056,145.22 911.423,143.47C902.79,141.72 893.34,140.845 883.073,140.845C875.14,140.845 867.148,141.837 859.098,143.82C851.048,145.804 843.815,148.837 837.398,152.92C830.981,157.004 825.731,162.312 821.648,168.845C817.565,175.379 815.523,183.195 815.523,192.295C815.523,203.962 818.44,213.062 824.273,219.595C830.106,226.129 837.398,231.204 846.148,234.82C854.898,238.437 864.406,241.237 874.673,243.22C884.94,245.204 894.448,247.42 903.198,249.87C911.948,252.32 919.24,255.529 925.073,259.495C930.906,263.462 933.823,269.295 933.823,276.995C933.823,282.595 932.423,287.204 929.623,290.82C926.823,294.437 923.265,297.179 918.948,299.045C914.631,300.912 909.906,302.195 904.773,302.895C899.64,303.595 894.74,303.945 890.073,303.945C884.006,303.945 878.115,303.362 872.398,302.195C866.681,301.029 861.548,299.104 856.998,296.42C852.448,293.737 848.773,290.12 845.973,285.57C843.173,281.02 841.656,275.479 841.423,268.945Z" style="fill:white;"/>
        <path d="M1052.59,286.366C1052.54,285.557 1052.52,284.649 1052.52,283.645C1052.52,283.645 1052.52,184.295 1052.52,184.295C1052.52,184.295 1075.57,184.295 1075.57,184.295C1082.75,184.295 1088.57,178.475 1088.57,171.295L1088.57,145.045C1088.57,137.866 1082.75,132.045 1075.57,132.045L1052.52,132.045L1052.52,90.795C1052.52,83.616 1046.7,77.795 1039.52,77.795L1009.77,77.795C1002.59,77.795 996.773,83.616 996.773,90.795L996.773,132.045C996.773,132.045 978.973,132.045 978.973,132.045C971.793,132.045 965.973,137.866 965.973,145.045L965.973,171.295C965.973,178.475 971.793,184.295 978.973,184.295L996.773,184.295C996.773,184.295 996.773,286.445 996.773,286.445C996.773,296.483 997.883,304.553 999.835,310.687C1002.32,318.491 1006.32,324.404 1011.46,328.661C1016.35,332.708 1022.68,335.671 1030.6,337.188C1036.77,338.368 1044.17,338.995 1052.82,338.995C1052.82,338.995 1075.57,338.995 1075.57,338.995C1082.75,338.995 1088.57,333.175 1088.57,325.995L1088.57,299.745C1088.57,292.566 1082.75,286.745 1075.57,286.745L1061.92,286.745C1058.15,286.745 1055.04,286.632 1052.59,286.366ZM1039.52,145.045L1039.52,90.795L1009.77,90.795L1009.77,145.045L978.973,145.045L978.973,171.295L1009.77,171.295L1009.77,286.445C1009.77,294.845 1010.59,301.612 1012.22,306.745C1013.86,311.879 1016.37,315.845 1019.75,318.645C1023.13,321.445 1027.57,323.37 1033.05,324.42C1038.53,325.47 1045.12,325.995 1052.82,325.995L1075.57,325.995L1075.57,299.745L1061.92,299.745C1057.26,299.745 1053.46,299.57 1050.55,299.22C1047.63,298.87 1045.36,298.112 1043.72,296.945C1042.09,295.779 1040.98,294.145 1040.4,292.045C1039.82,289.945 1039.52,287.145 1039.52,283.645L1039.52,171.295L1075.57,171.295L1075.57,145.045L1039.52,145.045Z" style="fill:white;"/>
        <path d="M1263.37,290.272C1263.26,288.364 1263.22,286.155 1263.22,283.645L1263.22,190.545C1263.22,177.243 1260.41,166.525 1255.38,158.249C1250.21,149.724 1243.34,143.116 1234.82,138.397C1226.96,134.046 1218.2,131.133 1208.51,129.73C1199.85,128.474 1191.12,127.845 1182.32,127.845C1171,127.845 1160.39,129.021 1150.49,131.337C1139.86,133.821 1130.42,137.928 1122.14,143.587C1113.45,149.526 1106.48,157.26 1101.26,166.82C1096.21,176.075 1093.25,187.393 1092.68,200.854C1092.54,204.393 1093.84,207.838 1096.29,210.394C1098.74,212.95 1102.13,214.395 1105.67,214.395L1135.42,214.395C1142.34,214.395 1148.04,208.983 1148.4,202.079C1148.82,194.206 1150.53,188.398 1155.51,185.567C1162.18,181.768 1170.57,180.095 1180.57,180.095C1184.62,180.095 1188.72,180.401 1192.87,181.008C1196.04,181.473 1198.92,182.364 1201.47,183.758C1203.37,184.792 1204.88,186.324 1206.09,188.277C1207.46,190.505 1207.82,193.525 1207.82,197.195C1207.82,198.476 1208.01,199.606 1207.27,200.273C1205.31,202.017 1202.57,203.165 1199.23,204.072C1194.19,205.436 1188.37,206.466 1181.76,207.2C1174.09,208.053 1165.99,209.328 1157.46,211.03C1149.4,212.5 1141.5,214.34 1133.78,216.546C1124.93,219.074 1117.08,222.826 1110.19,227.742C1102.87,232.97 1096.94,239.742 1092.46,248.107C1088.1,256.245 1085.67,266.656 1085.67,279.445C1085.67,290.798 1087.8,300.444 1091.73,308.449C1095.84,316.826 1101.44,323.571 1108.45,328.75C1115.09,333.663 1122.94,337.333 1132.05,339.645C1140.41,341.769 1149.23,342.845 1158.52,342.845C1172.85,342.845 1186.17,340.357 1198.5,335.45C1204.34,333.127 1209.86,330.145 1215.05,326.491C1216.51,328.905 1218.2,331.003 1220.1,332.801C1226.9,339.251 1235.92,342.845 1247.42,342.845C1259.38,342.845 1268.64,340.472 1275.39,336.487C1279.35,334.149 1281.77,329.893 1281.77,325.295L1281.77,302.195C1281.77,298.017 1279.76,294.093 1276.37,291.649C1272.98,289.206 1268.63,288.541 1264.66,289.863L1263.37,290.272ZM1268.77,325.295C1263.64,328.329 1256.52,329.845 1247.42,329.845C1239.72,329.845 1233.6,327.687 1229.05,323.37C1224.5,319.054 1222.22,311.995 1222.22,302.195C1214.06,311.995 1204.55,319.054 1193.7,323.37C1182.85,327.687 1171.12,329.845 1158.52,329.845C1150.36,329.845 1142.6,328.912 1135.25,327.045C1127.9,325.179 1121.54,322.262 1116.17,318.295C1110.81,314.329 1106.55,309.137 1103.4,302.72C1100.25,296.304 1098.67,288.545 1098.67,279.445C1098.67,269.179 1100.42,260.779 1103.92,254.245C1107.42,247.712 1112.03,242.404 1117.75,238.32C1123.46,234.237 1130,231.145 1137.35,229.045C1144.7,226.945 1152.22,225.195 1159.92,223.795C1168.09,222.162 1175.85,220.937 1183.2,220.12C1190.55,219.304 1197.02,218.137 1202.62,216.62C1208.22,215.104 1212.66,212.887 1215.92,209.97C1219.19,207.054 1220.82,202.795 1220.82,197.195C1220.82,190.662 1219.6,185.412 1217.15,181.445C1214.7,177.479 1211.55,174.445 1207.7,172.345C1203.85,170.245 1199.53,168.845 1194.75,168.145C1189.96,167.445 1185.24,167.095 1180.57,167.095C1167.97,167.095 1157.47,169.487 1149.07,174.27C1140.67,179.054 1136.12,188.095 1135.42,201.395L1105.67,201.395C1106.14,190.195 1108.47,180.745 1112.67,173.045C1116.87,165.345 1122.47,159.104 1129.47,154.32C1136.47,149.537 1144.46,146.095 1153.45,143.995C1162.43,141.895 1172.06,140.845 1182.32,140.845C1190.49,140.845 1198.6,141.429 1206.65,142.595C1214.7,143.762 1221.99,146.154 1228.52,149.77C1235.06,153.387 1240.31,158.462 1244.27,164.995C1248.24,171.529 1250.22,180.045 1250.22,190.545L1250.22,283.645C1250.22,290.645 1250.63,295.779 1251.45,299.045C1252.27,302.312 1255.01,303.945 1259.67,303.945C1262.24,303.945 1265.27,303.362 1268.77,302.195L1268.77,325.295ZM1220.47,232.545C1216.74,235.345 1211.84,237.387 1205.77,238.67C1199.71,239.954 1193.35,241.004 1186.7,241.82C1180.05,242.637 1173.34,243.57 1166.57,244.62C1159.81,245.67 1153.74,247.362 1148.37,249.695C1143.01,252.029 1138.63,255.354 1135.25,259.67C1131.87,263.987 1130.17,269.879 1130.17,277.345C1130.17,282.245 1131.16,286.387 1133.15,289.77C1135.13,293.154 1137.7,295.895 1140.85,297.995C1144,300.095 1147.67,301.612 1151.87,302.545C1156.07,303.479 1160.51,303.945 1165.17,303.945C1174.97,303.945 1183.37,302.604 1190.37,299.92C1197.37,297.237 1203.09,293.854 1207.52,289.77C1211.96,285.687 1215.22,281.254 1217.32,276.47C1219.42,271.687 1220.47,267.195 1220.47,262.995L1220.47,232.545ZM1207.47,251.593L1207.47,262.995C1207.47,265.575 1206.71,268.306 1205.42,271.245C1204,274.485 1201.72,277.442 1198.72,280.208C1195.37,283.29 1191,285.756 1185.72,287.782C1180.02,289.968 1173.16,290.945 1165.17,290.945C1161.5,290.945 1158,290.59 1154.69,289.855C1152.17,289.295 1149.95,288.438 1148.06,287.179C1146.54,286.166 1145.32,284.828 1144.36,283.196C1143.44,281.615 1143.17,279.635 1143.17,277.345C1143.17,273.315 1143.65,270.02 1145.48,267.69C1147.55,265.044 1150.27,263.048 1153.56,261.617C1157.98,259.694 1162.99,258.332 1168.57,257.467C1175.2,256.438 1181.77,255.524 1188.28,254.723C1194.96,253.904 1201.35,252.86 1207.47,251.593Z" style="fill:white;"/>
        <path d="M1298.17,63.095C1290.99,63.095 1285.17,68.916 1285.17,76.095L1285.17,325.995C1285.17,333.175 1290.99,338.995 1298.17,338.995L1327.92,338.995C1335.1,338.995 1340.92,333.175 1340.92,325.995L1340.92,76.095C1340.92,68.916 1335.1,63.095 1327.92,63.095L1298.17,63.095ZM1298.17,76.095L1298.17,325.995L1327.92,325.995L1327.92,76.095L1298.17,76.095Z" style="fill:white;"/>
        <path d="M1375.87,63.095C1368.69,63.095 1362.87,68.916 1362.87,76.095L1362.87,325.995C1362.87,333.175 1368.69,338.995 1375.87,338.995L1405.62,338.995C1412.8,338.995 1418.62,333.175 1418.62,325.995L1418.62,76.095C1418.62,68.916 1412.8,63.095 1405.62,63.095L1375.87,63.095ZM1375.87,76.095L1375.87,325.995L1405.62,325.995L1405.62,76.095L1375.87,76.095Z" style="fill:white;"/>
        <path d="M1612.15,257.054C1617.6,255.685 1621.71,250.863 1621.96,244.998C1622.47,233.043 1621.41,220.45 1618.74,207.222C1615.98,193.529 1610.96,180.892 1603.72,169.305C1596.27,157.376 1586.38,147.531 1574.05,139.803C1561.59,131.998 1545.97,127.845 1527.07,127.845C1512.77,127.845 1499.63,130.591 1487.62,135.988C1475.57,141.403 1465.15,148.987 1456.35,158.734C1447.68,168.333 1440.92,179.647 1436.12,192.713C1431.42,205.504 1429.02,219.593 1429.02,234.995C1429.02,235.142 1429.03,235.289 1429.03,235.436C1429.54,250.434 1431.79,264.284 1435.73,276.995C1439.91,290.467 1446.22,302.028 1454.57,311.728C1463.06,321.583 1473.51,329.272 1485.97,334.746C1498.07,340.065 1512.34,342.845 1528.82,342.845C1552.54,342.845 1572.14,336.663 1587.78,324.802C1603.68,312.736 1614.27,294.947 1618.93,271.089C1619.68,267.276 1618.68,263.33 1616.21,260.331C1615.08,258.958 1613.69,257.849 1612.15,257.054ZM1606.17,268.595L1576.77,268.595C1574.21,280.495 1568.9,289.362 1560.85,295.195C1552.8,301.029 1542.47,303.945 1529.87,303.945C1520.07,303.945 1511.56,302.312 1504.32,299.045C1497.09,295.779 1491.14,291.404 1486.47,285.92C1481.81,280.437 1478.42,274.137 1476.32,267.02C1474.22,259.904 1473.29,252.379 1473.52,244.445L1608.97,244.445C1609.44,233.479 1608.45,221.929 1606,209.795C1603.55,197.662 1599.12,186.462 1592.7,176.195C1586.28,165.929 1577.77,157.47 1567.15,150.82C1556.53,144.17 1543.17,140.845 1527.07,140.845C1514.71,140.845 1503.33,143.179 1492.95,147.845C1482.57,152.512 1473.58,159.045 1466,167.445C1458.41,175.845 1452.52,185.762 1448.32,197.195C1444.12,208.629 1442.02,221.229 1442.02,234.995C1442.49,248.762 1444.53,261.479 1448.15,273.145C1451.77,284.812 1457.19,294.845 1464.42,303.245C1471.66,311.645 1480.58,318.179 1491.2,322.845C1501.82,327.512 1514.36,329.845 1528.82,329.845C1549.36,329.845 1566.39,324.712 1579.92,314.445C1593.46,304.179 1602.21,288.895 1606.17,268.595ZM1570.09,257.445L1487.4,257.445C1487.76,259.447 1488.22,261.413 1488.79,263.341C1490.36,268.668 1492.88,273.391 1496.37,277.495C1499.84,281.569 1504.3,284.77 1509.67,287.198C1515.39,289.777 1522.13,290.945 1529.87,290.945C1539.34,290.945 1547.17,289.05 1553.22,284.669C1558.86,280.583 1562.27,274.19 1564.07,265.855C1564.85,262.237 1567.09,259.244 1570.09,257.445ZM1577.47,218.195L1473.52,218.195C1473.99,211.195 1475.51,204.604 1478.07,198.42C1480.64,192.237 1484.14,186.812 1488.57,182.145C1493.01,177.479 1498.32,173.804 1504.5,171.12C1510.68,168.437 1517.62,167.095 1525.32,167.095C1532.79,167.095 1539.62,168.437 1545.8,171.12C1551.98,173.804 1557.35,177.42 1561.9,181.97C1566.45,186.52 1570.07,191.945 1572.75,198.245C1575.43,204.545 1577.01,211.195 1577.47,218.195ZM1561.53,205.195L1489.38,205.195C1489.6,204.594 1489.83,203.997 1490.08,203.404C1492.02,198.733 1494.65,194.625 1498,191.099C1501.24,187.682 1505.14,185.011 1509.67,183.046C1514.32,181.031 1519.54,180.095 1525.32,180.095C1530.9,180.095 1536.01,181.042 1540.62,183.046C1545.26,185.058 1549.29,187.751 1552.71,191.163C1556.11,194.562 1558.78,198.632 1560.79,203.34C1561.05,203.954 1561.3,204.573 1561.53,205.196L1561.53,205.195Z" style="fill:white;"/>
        <path d="M1679.72,145.216L1679.72,145.045C1679.72,137.866 1673.9,132.045 1666.72,132.045L1638.72,132.045C1631.54,132.045 1625.72,137.866 1625.72,145.045L1625.72,325.995C1625.72,333.175 1631.54,338.995 1638.72,338.995L1668.47,338.995C1675.65,338.995 1681.47,333.175 1681.47,325.995L1681.47,245.495C1681.47,235.062 1682.47,225.823 1684.56,217.789C1686.38,210.756 1689.23,204.739 1693.25,199.807C1697.01,195.189 1702.03,191.756 1708.18,189.361C1715.28,186.602 1723.87,185.345 1733.92,185.345C1741.1,185.345 1746.92,179.525 1746.92,172.345L1746.92,140.845C1746.92,133.812 1741.33,128.055 1734.3,127.851C1715.11,127.295 1699.33,131.485 1686.81,139.829C1684.38,141.45 1682.02,143.244 1679.72,145.216ZM1638.72,145.045L1638.72,325.995L1668.47,325.995L1668.47,245.495C1668.47,233.829 1669.64,223.504 1671.97,214.52C1674.31,205.537 1678.04,197.895 1683.17,191.595C1688.31,185.295 1695.07,180.512 1703.47,177.245C1711.87,173.979 1722.02,172.345 1733.92,172.345L1733.92,140.845C1717.82,140.379 1704.52,143.645 1694.02,150.645C1683.52,157.645 1674.66,168.495 1667.42,183.195L1666.72,183.195L1666.72,145.045L1638.72,145.045Z" style="fill:white;"/>
    </g>
</svg>
